<svg width="620" height="117" xmlns="http://www.w3.org/2000/svg" fill="none">
 <defs>
  <clipPath id="clip0">
   <rect id="svg_1" x="0.27124" y="1.56958" fill="white" height="113.515" width="113.516"/>
  </clipPath>
 </defs>
 <g>
  <title>Layer 1</title>
  <g id="svg_2" clip-path="url(#clip0)">
   <path id="svg_3" fill="#2563EB" d="m44.478,55.4251l-40.89678,21.2244c-4.44632,2.30721 -4.40388,8.68311 0.07188,10.9305l41.1471,20.666c7.6949,3.864 16.7625,3.864 24.4574,0l41.1464,-20.666c4.476,-2.2483 4.519,-8.6233 0.073,-10.9305l-40.89809,-21.2244c-7.8681,-4.0834 -17.2319,-4.0834 -25.1009,0l0,0z"/>
   <path id="svg_4" fill="#407BFC" d="m44.478,31.9127l-40.89678,21.2252c-4.44632,2.3072 -4.40388,8.6822 0.07188,10.9305l41.1471,20.6658c7.6949,3.8643 16.7625,3.8643 24.4574,0l41.1464,-20.6658c4.476,-2.2483 4.519,-8.6233 0.073,-10.9305l-40.89809,-21.2244c-7.8681,-4.0834 -17.2319,-4.0834 -25.1009,-0.0008l0,0z"/>
   <path id="svg_5" fill="#407BFC" d="m69.2577,84.7341l28.8639,-14.4968l-28.5425,-14.8122c-7.8682,-4.0834 -17.2319,-4.0834 -25.1,0l-28.5426,14.8122l28.8639,14.4968c7.6949,3.8644 16.7625,3.8644 24.4573,0l0,0z"/>
   <path id="svg_6" fill="#80A7FF" d="m44.478,8.40096l-40.89678,21.22444c-4.44632,2.308 -4.40388,8.683 0.07188,10.9313l41.1471,20.6658c7.6949,3.8643 16.7625,3.8643 24.4574,0l41.1464,-20.6658c4.476,-2.2483 4.519,-8.6233 0.073,-10.9313l-40.89809,-21.22444c-7.8681,-4.08344 -17.2319,-4.08344 -25.1009,0l0,0z"/>
   <path id="svg_7" fill="#80A7FF" d="m69.2577,61.2226l28.8639,-14.4969l-28.5425,-14.813c-7.8682,-4.0835 -17.2319,-4.0835 -25.1,0l-28.5426,14.813l28.8639,14.4969c7.6949,3.8643 16.7625,3.8643 24.4573,0z"/>
   <path id="svg_8" fill="#80A7FF" d="m69.2578,61.2225l5.8406,-2.9333l-5.51929,-2.8641c-7.8681,-4.0834 -17.2319,-4.0834 -25.1009,0l-5.5185,2.8641l5.8407,2.9333c7.694,3.8643 16.7625,3.8643 24.4574,0z"/>
  </g>
  <text transform="matrix(1 0 0 1 0 0)" font-style="normal" font-weight="bold" xml:space="preserve" text-anchor="start" font-family="system-ui" font-size="72" stroke-width="0" id="svg_10" y="85.67969" x="124" fill="#444444">Česká účetní</text>
 </g>
</svg>